<?xml version="1.0" encoding="UTF-8"?>
<svg xmlns="http://www.w3.org/2000/svg" width="128" height="50" viewBox="0 0 128 50" fill="none">
  <path d="M106.943 40.4257C107.068 40.5819 107.223 40.7112 107.398 40.8059C107.573 40.9006 107.765 40.9589 107.963 40.9772C108.051 40.9955 108.142 40.988 108.226 40.9556C108.309 40.9233 108.382 40.8674 108.435 40.7947C108.477 40.7235 108.494 40.6407 108.485 40.5587C108.475 40.4767 108.44 40.4 108.384 40.3403C108.258 40.1844 108.103 40.0553 107.927 39.9606C107.751 39.8659 107.559 39.8075 107.361 39.7888C107.273 39.77 107.183 39.7768 107.099 39.8085C107.016 39.8401 106.943 39.8953 106.889 39.9675C106.849 40.0395 106.832 40.1228 106.842 40.205C106.852 40.2873 106.887 40.3643 106.943 40.4248" fill="#C1D72E"></path>
  <path d="M109.023 41.7908C109.055 41.7311 109.068 41.663 109.06 41.5957C109.053 41.5284 109.025 41.465 108.98 41.4141C108.883 41.2919 108.762 41.1906 108.625 41.1158C108.488 41.041 108.338 40.9942 108.183 40.9781C108.111 40.9679 108.038 40.9769 107.97 41.0044C107.903 41.0318 107.844 41.0767 107.799 41.1344C107.766 41.1941 107.752 41.2625 107.759 41.3303C107.766 41.3982 107.793 41.4623 107.837 41.5141C107.935 41.6362 108.056 41.7376 108.193 41.8121C108.329 41.8866 108.48 41.9328 108.634 41.948C108.708 41.9615 108.783 41.9539 108.852 41.9261C108.922 41.8983 108.982 41.8514 109.026 41.7908" fill="#C1D72E"></path>
  <path d="M108.652 42.4879C108.722 42.5753 108.808 42.6476 108.906 42.7004C109.004 42.7531 109.111 42.7852 109.222 42.7947C109.279 42.8047 109.339 42.7983 109.393 42.7761C109.448 42.754 109.495 42.7171 109.53 42.6694C109.555 42.6211 109.566 42.5665 109.56 42.5123C109.555 42.4581 109.534 42.4067 109.499 42.3646C109.43 42.2768 109.344 42.204 109.246 42.1508C109.148 42.0976 109.041 42.0649 108.93 42.0548C108.872 42.0462 108.813 42.0536 108.759 42.0761C108.705 42.0987 108.658 42.1356 108.623 42.183C108.596 42.2306 108.585 42.2852 108.59 42.3395C108.595 42.3937 108.617 42.4452 108.651 42.4869" fill="#C1D72E"></path>
  <path d="M113.301 41.9472C113.236 41.9467 113.173 41.964 113.117 41.9972C113.061 42.0304 113.016 42.0782 112.985 42.1355C112.96 42.2085 112.958 42.2873 112.978 42.3616C112.998 42.436 113.041 42.5023 113.099 42.552C113.207 42.6652 113.336 42.7554 113.479 42.8174C113.622 42.8795 113.776 42.912 113.932 42.9132C113.996 42.9127 114.059 42.8951 114.115 42.8622C114.171 42.8293 114.217 42.7823 114.249 42.7258C114.271 42.6521 114.272 42.5733 114.251 42.4991C114.23 42.4249 114.188 42.3586 114.13 42.3083C114.024 42.1939 113.895 42.1028 113.753 42.0408C113.61 41.9788 113.456 41.9473 113.301 41.9481" fill="#C1D72E"></path>
  <path d="M117.09 41.252C117.025 41.2626 116.965 41.2908 116.915 41.3336C116.865 41.3764 116.827 41.4321 116.806 41.4947C116.795 41.6006 116.812 41.7076 116.855 41.8047C116.898 41.9018 116.966 41.9855 117.052 42.0471H117.058C117.203 42.1814 117.374 42.2832 117.56 42.3456C117.746 42.408 117.944 42.4297 118.139 42.4093C118.205 42.4 118.267 42.3719 118.318 42.3283C118.37 42.2846 118.407 42.2272 118.427 42.1627C118.442 42.0577 118.426 41.9508 118.383 41.8543C118.34 41.7578 118.27 41.6755 118.183 41.617C118.038 41.4813 117.865 41.3784 117.677 41.3153C117.489 41.2521 117.29 41.2302 117.093 41.251" fill="#C1D72E"></path>
  <path d="M119.98 40.3014V40.3402C119.999 40.4728 120.048 40.5993 120.122 40.7107C120.196 40.822 120.293 40.9153 120.407 40.9839C120.587 41.1393 120.801 41.2481 121.032 41.301C121.262 41.354 121.502 41.3494 121.731 41.2878C121.791 41.2625 121.843 41.2216 121.882 41.1692C121.921 41.1169 121.946 41.0549 121.954 40.9898C121.945 40.8476 121.9 40.7101 121.824 40.5899C121.749 40.4696 121.645 40.3704 121.521 40.3014C121.34 40.1502 121.126 40.0439 120.897 39.991C120.667 39.938 120.429 39.9399 120.2 39.9965C120.141 40.0241 120.089 40.0666 120.05 40.12C120.012 40.1733 119.987 40.2358 119.979 40.3014" fill="#C1D72E"></path>
  <path d="M122.548 38.2325C122.501 38.2771 122.464 38.3326 122.442 38.3942C122.42 38.4558 122.413 38.5219 122.421 38.5869C122.466 38.7625 122.547 38.9263 122.661 39.0666C122.775 39.207 122.917 39.3206 123.079 39.3995C123.288 39.5722 123.542 39.6808 123.811 39.7124C124.08 39.7441 124.352 39.6975 124.595 39.5782C124.643 39.5346 124.679 39.4802 124.702 39.4193C124.725 39.3585 124.732 39.2932 124.725 39.2287C124.679 39.0528 124.597 38.8889 124.483 38.7479C124.37 38.6068 124.227 38.492 124.066 38.4112C123.855 38.2409 123.601 38.134 123.332 38.1026C123.064 38.0712 122.792 38.1165 122.548 38.2335" fill="#C1D72E"></path>
  <path d="M124.998 37.3256C125.391 37.5541 125.851 37.6368 126.298 37.5596L126.632 37.312C126.845 36.9324 126.461 36.3683 125.74 36.0013C125.349 35.7701 124.889 35.6868 124.443 35.7664L124.101 36.0188C124.067 36.0852 124.049 36.1587 124.048 36.2334C124.048 36.5848 124.415 37.0295 124.998 37.3266" fill="#C1D72E"></path>
  <path d="M127.78 34.5509C127.858 34.0888 127.291 33.4635 126.482 33.1266C126.272 33.018 126.042 32.953 125.806 32.9353C125.57 32.9177 125.334 32.9477 125.109 33.0237C125.036 33.0586 124.971 33.1107 124.921 33.1757C124.871 33.2406 124.836 33.3166 124.821 33.3975C124.743 33.8664 125.315 34.4859 126.122 34.8218C126.334 34.931 126.565 34.9959 126.803 35.0126C127.04 35.0293 127.278 34.9974 127.503 34.9189C127.576 34.8839 127.64 34.8317 127.688 34.7666C127.737 34.7015 127.769 34.6255 127.782 34.5451" fill="#C1D72E"></path>
  <path d="M124.907 29.9304C124.838 29.9812 124.782 30.0477 124.744 30.1244C124.705 30.2012 124.685 30.2861 124.685 30.3722C124.685 30.3993 124.688 30.4263 124.694 30.4527C124.765 31.0071 125.519 31.6654 126.411 31.9489C126.629 32.0452 126.865 32.0913 127.102 32.0839C127.34 32.0765 127.573 32.0158 127.784 31.9062C127.863 31.8462 127.925 31.7654 127.961 31.6726C127.998 31.5798 128.009 31.4785 127.993 31.3799C127.925 30.8295 127.176 30.1702 126.284 29.8838C126.066 29.7868 125.829 29.7405 125.591 29.7484C125.353 29.7563 125.12 29.8182 124.908 29.9294" fill="#C1D72E"></path>
  <path d="M116.736 41.3014C116.803 41.2801 116.864 41.2413 116.912 41.1888C116.96 41.1363 116.993 41.072 117.008 41.0024C117.009 40.8689 116.976 40.7374 116.912 40.6203C116.849 40.5033 116.757 40.4045 116.645 40.3335C116.465 40.1737 116.252 40.0573 116.021 39.993C115.79 39.9288 115.548 39.9184 115.312 39.9626C115.246 39.983 115.186 40.0206 115.138 40.0717C115.09 40.1228 115.056 40.1856 115.04 40.2539C115.04 40.2762 115.04 40.2995 115.04 40.3228C115.056 40.4436 115.097 40.5595 115.161 40.6629C115.225 40.7662 115.31 40.8545 115.41 40.9218C115.59 41.081 115.803 41.1975 116.033 41.2628C116.263 41.3282 116.504 41.3407 116.74 41.2995" fill="#C1D72E"></path>
  <path d="M117.53 38.8636C117.568 39.037 117.645 39.1994 117.754 39.3388C117.863 39.4783 118.002 39.5913 118.16 39.6694C118.37 39.8415 118.623 39.953 118.89 39.9921C119.158 40.0313 119.431 39.9966 119.681 39.8918C119.735 39.8511 119.777 39.7975 119.805 39.7359C119.832 39.6743 119.844 39.6067 119.839 39.5393C119.8 39.3665 119.724 39.2044 119.616 39.0647C119.508 38.9251 119.371 38.8113 119.214 38.7316C119.002 38.5581 118.748 38.4459 118.479 38.4069C118.209 38.3679 117.934 38.4036 117.682 38.5102C117.635 38.5492 117.597 38.5983 117.57 38.6541C117.544 38.7098 117.53 38.7707 117.53 38.8325V38.8646" fill="#C1D72E"></path>
  <path d="M120.772 36.4966C120.38 36.2685 119.92 36.1886 119.475 36.2714L119.138 36.5267C119.103 36.5904 119.085 36.6625 119.087 36.7354C119.087 37.0908 119.464 37.5374 120.048 37.8335C120.439 38.061 120.897 38.1418 121.341 38.0617L121.676 37.8083C121.878 37.4199 121.484 36.8626 120.769 36.4976" fill="#C1D72E"></path>
  <path d="M121.245 33.7383C121.038 33.635 120.812 33.5769 120.581 33.5677C120.351 33.5585 120.121 33.5984 119.906 33.6849C119.832 33.7241 119.769 33.7819 119.723 33.8528C119.677 33.9237 119.65 34.0053 119.645 34.0897C119.612 34.5635 120.222 35.1791 121.023 35.4927C121.231 35.5944 121.457 35.6517 121.687 35.6609C121.917 35.6701 122.147 35.631 122.362 35.5461C122.435 35.5046 122.496 35.4456 122.542 35.3743C122.587 35.303 122.614 35.2216 122.62 35.1373C122.651 34.6645 122.051 34.048 121.245 33.7383Z" fill="#C1D72E"></path>
  <path d="M120.594 30.5935C120.389 30.5101 120.166 30.4776 119.945 30.4987C119.725 30.5198 119.512 30.5939 119.325 30.7149C119.247 30.7903 119.191 30.8867 119.165 30.9927C119.139 31.0988 119.143 31.2102 119.177 31.3139C119.358 31.6777 119.618 31.9953 119.937 32.2427C120.257 32.4901 120.628 32.6609 121.023 32.7421C121.229 32.8243 121.452 32.856 121.672 32.8346C121.892 32.8132 122.105 32.7392 122.291 32.6188C122.37 32.5449 122.426 32.4493 122.452 32.3438C122.478 32.2382 122.473 32.1273 122.437 32.0246C122.258 31.6604 121.999 31.3423 121.679 31.0943C121.36 30.8464 120.989 30.6751 120.594 30.5935Z" fill="#C1D72E"></path>
  <path d="M112.317 40.5995C112.376 40.4053 112.272 40.182 112.044 39.9655C111.868 39.7967 111.659 39.667 111.431 39.5849C111.202 39.5028 110.96 39.4701 110.718 39.4888C110.64 39.4987 110.566 39.53 110.505 39.5794C110.444 39.6287 110.397 39.6941 110.37 39.7684C110.35 39.8903 110.366 40.0152 110.414 40.1286C110.462 40.242 110.541 40.3393 110.642 40.4092C110.977 40.722 111.42 40.8917 111.876 40.883C111.822 40.9204 111.78 40.9721 111.753 41.0325C111.735 41.0688 111.725 41.1092 111.726 41.15C111.738 41.3033 111.807 41.4465 111.919 41.551C112.058 41.6949 112.225 41.8079 112.41 41.883C112.594 41.958 112.793 41.9934 112.992 41.9869C113.065 41.9877 113.138 41.967 113.201 41.9272C113.263 41.8875 113.313 41.8303 113.344 41.7626C113.369 41.6688 113.366 41.5697 113.337 41.4773C113.307 41.3849 113.252 41.3029 113.178 41.2413C112.898 40.9633 112.522 40.8065 112.13 40.8044C112.214 40.7603 112.278 40.6872 112.313 40.5985" fill="#C1D72E"></path>
  <path d="M112.915 38.7345C112.945 38.907 113.015 39.0702 113.118 39.2111C113.221 39.3521 113.355 39.467 113.51 39.5471C113.719 39.7237 113.972 39.8403 114.241 39.8847C114.51 39.9291 114.786 39.8997 115.04 39.7995C115.097 39.764 115.144 39.7141 115.175 39.6549C115.207 39.5957 115.223 39.5291 115.222 39.4617C115.193 39.2885 115.125 39.1245 115.022 38.9828C114.92 38.8412 114.786 38.7258 114.631 38.6461C114.419 38.4702 114.166 38.3536 113.896 38.3083C113.626 38.2629 113.349 38.2904 113.092 38.3879C113.037 38.426 112.991 38.4775 112.959 38.5379C112.928 38.5982 112.912 38.6654 112.913 38.7335" fill="#C1D72E"></path>
  <path d="M116.587 38.0917L116.904 37.8073C117.059 37.4189 116.629 36.851 115.909 36.5092C115.518 36.2968 115.065 36.232 114.632 36.3267L114.319 36.6063C114.165 37.0073 114.596 37.5684 115.318 37.9131C115.705 38.1296 116.157 38.1933 116.587 38.0917Z" fill="#C1D72E"></path>
  <path d="M115.749 33.7461C115.554 33.6632 115.343 33.6261 115.132 33.6375C114.921 33.6489 114.715 33.7086 114.53 33.8121C114.458 33.8702 114.403 33.9475 114.373 34.0351C114.342 34.1228 114.336 34.2174 114.356 34.3082C114.492 34.6407 114.705 34.9351 114.978 35.1663C115.251 35.3976 115.575 35.5588 115.923 35.6364C116.116 35.7197 116.325 35.7575 116.534 35.7467C116.744 35.7359 116.948 35.677 117.131 35.5743C117.204 35.5167 117.26 35.4401 117.292 35.3527C117.324 35.2653 117.332 35.1706 117.314 35.0791C117.177 34.7472 116.963 34.4531 116.691 34.2212C116.418 33.9894 116.095 33.8265 115.748 33.7461" fill="#C1D72E"></path>
  <path d="M114.153 30.6188C113.978 30.5731 113.794 30.5747 113.619 30.6236C113.445 30.6726 113.286 30.767 113.16 30.8975C113.088 31.0133 113.052 31.1486 113.059 31.2852C113.065 31.4218 113.113 31.5531 113.195 31.6616C113.442 32.0001 113.753 32.2849 114.111 32.4991C114.469 32.7133 114.866 32.8524 115.279 32.9082C115.453 32.9542 115.636 32.9529 115.809 32.9043C115.983 32.8557 116.14 32.7616 116.266 32.6315C116.34 32.5156 116.376 32.3795 116.37 32.2419C116.364 32.1044 116.315 31.9722 116.231 31.8635C115.988 31.5234 115.677 31.2373 115.32 31.0227C114.962 30.8082 114.565 30.6697 114.153 30.6159" fill="#C1D72E"></path>
  <path d="M123.838 26.5567C123.755 26.6509 123.7 26.768 123.682 26.8933C123.663 27.0187 123.682 27.1467 123.735 27.2615C123.962 27.6545 124.27 27.9939 124.637 28.2571C125.005 28.5203 125.424 28.7013 125.866 28.7878C126.082 28.8649 126.312 28.8875 126.538 28.8536C126.765 28.8198 126.979 28.7305 127.163 28.5936C127.247 28.4999 127.301 28.3835 127.319 28.2589C127.338 28.1342 127.32 28.0069 127.267 27.8926C127.043 27.4972 126.737 27.1557 126.37 26.8916C126.002 26.6276 125.582 26.4474 125.139 26.3635C124.923 26.2856 124.692 26.2626 124.465 26.2965C124.238 26.3303 124.023 26.42 123.838 26.5576" fill="#C1D72E"></path>
  <path d="M122.231 23.1731C122.16 23.2912 122.126 23.4284 122.135 23.5663C122.143 23.7042 122.192 23.8363 122.277 23.9449C122.524 24.2838 122.836 24.5686 123.195 24.7818C123.554 24.9951 123.953 25.1325 124.366 25.1857C124.539 25.2303 124.721 25.2275 124.893 25.1775C125.064 25.1275 125.22 25.0321 125.343 24.9013C125.415 24.7839 125.45 24.6472 125.443 24.5093C125.436 24.3714 125.388 24.2389 125.304 24.1294C125.055 23.7926 124.742 23.5095 124.383 23.2964C124.024 23.0834 123.626 22.9447 123.213 22.8886C123.039 22.8447 122.857 22.8478 122.684 22.8977C122.512 22.9477 122.355 23.0427 122.231 23.1731Z" fill="#C1D72E"></path>
  <path d="M121.986 21.4507C122.122 21.4664 122.26 21.4441 122.384 21.3862C122.509 21.3284 122.615 21.2372 122.692 21.1226C122.746 20.9843 122.757 20.8329 122.723 20.6883C122.69 20.5437 122.615 20.4125 122.507 20.3119C122.258 20.0273 121.955 19.7955 121.617 19.6299C121.278 19.4642 120.91 19.368 120.535 19.3468C120.398 19.3323 120.26 19.3555 120.136 19.4138C120.011 19.4721 119.905 19.5633 119.827 19.6779C119.772 19.8169 119.761 19.9695 119.794 20.1154C119.827 20.2612 119.903 20.3934 120.013 20.4944C120.262 20.7781 120.565 21.0088 120.904 21.173C121.243 21.3372 121.61 21.4316 121.986 21.4507Z" fill="#C1D72E"></path>
  <path d="M118.789 17.6934C118.893 17.6878 118.993 17.6528 119.078 17.5924C119.163 17.5319 119.229 17.4485 119.27 17.3516C119.288 17.3017 119.298 17.2487 119.296 17.1953C119.27 16.9378 119.144 16.701 118.947 16.5351C118.713 16.3023 118.433 16.1208 118.126 16.0022C117.819 15.8836 117.491 15.8303 117.162 15.8458C117.059 15.852 116.959 15.8871 116.874 15.9471C116.789 16.0071 116.723 16.0896 116.681 16.1856C116.594 16.4196 116.712 16.7167 116.997 17.0031C117.232 17.236 117.513 17.4174 117.821 17.5362C118.129 17.6549 118.458 17.7084 118.787 17.6934" fill="#C1D72E"></path>
  <path d="M114.883 14.0108C114.958 13.9878 115.026 13.9449 115.08 13.8866C115.134 13.8283 115.171 13.7565 115.188 13.6788C115.188 13.5234 115.148 13.3707 115.073 13.2349C114.998 13.0991 114.891 12.9846 114.76 12.9021C114.549 12.7149 114.299 12.5778 114.028 12.5009C113.757 12.424 113.473 12.4091 113.195 12.4574C113.12 12.4799 113.053 12.5222 113 12.5799C112.946 12.6376 112.909 12.7086 112.892 12.7856C112.846 13.0254 113.002 13.307 113.314 13.5671C113.527 13.7534 113.778 13.8897 114.049 13.9664C114.321 14.0431 114.606 14.0583 114.884 14.0108" fill="#C1D72E"></path>
  <path d="M109.059 10.2962C109.241 10.4443 109.457 10.5425 109.687 10.5815C109.917 10.6204 110.153 10.5988 110.373 10.5186C110.424 10.4853 110.466 10.4396 110.495 10.3857C110.525 10.3318 110.54 10.2714 110.541 10.2098C110.516 10.0626 110.458 9.92322 110.371 9.80259C110.284 9.68196 110.17 9.5834 110.039 9.51467C109.857 9.36806 109.641 9.27049 109.412 9.2311C109.182 9.1917 108.946 9.21177 108.727 9.28943C108.676 9.32249 108.634 9.36805 108.605 9.42186C108.576 9.47566 108.561 9.53598 108.561 9.5972C108.585 9.74455 108.643 9.88429 108.729 10.0055C108.816 10.1268 108.929 10.2263 109.059 10.2962Z" fill="#C1D72E"></path>
  <path d="M105.397 7.28058L105.378 7.30283L105.397 7.28058Z" fill="#C1D72E"></path>
  <path d="M104.335 7.26608C104.753 7.50977 105.207 7.52628 105.382 7.30395L105.44 7.02918C105.397 6.90428 105.329 6.78949 105.241 6.69183C105.153 6.59417 105.046 6.5157 104.927 6.46121C104.561 6.25636 104.069 6.16995 103.87 6.42432L103.814 6.70199C103.858 6.82698 103.926 6.9416 104.015 7.03878C104.105 7.13596 104.213 7.21365 104.333 7.26705" fill="#C1D72E"></path>
  <path d="M88.8416 19.7108C88.4666 19.5011 87.9821 19.4196 87.784 19.671L87.7273 19.9487C87.8187 20.1981 88.0029 20.4015 88.2407 20.5157C88.6695 20.7555 89.1223 20.773 89.2983 20.5526L89.3579 20.273C89.3138 20.1492 89.2456 20.0357 89.1572 19.9391C89.0689 19.8426 88.9622 19.7649 88.8435 19.7108" fill="#C1D72E"></path>
  <path d="M89.3157 20.5254L89.2964 20.5544L89.3157 20.5254Z" fill="#C1D72E"></path>
  <path d="M99.2595 4.57769C99.4494 4.68065 99.6716 4.70468 99.8787 4.64468C99.9186 4.63004 99.9547 4.6067 99.9847 4.57633C100.015 4.54595 100.037 4.50929 100.052 4.46895C100.061 4.4375 100.066 4.40477 100.066 4.37186C100.066 4.15632 99.8316 3.9369 99.5682 3.81457C99.3777 3.71029 99.1544 3.68554 98.9461 3.74564L98.774 3.92234C98.6942 4.16506 98.9606 4.43691 99.2605 4.57575" fill="#C1D72E"></path>
  <path d="M94.1121 1.64753C94.0429 1.6177 93.9683 1.6029 93.8931 1.60407C93.8179 1.60524 93.7438 1.62236 93.6756 1.65433C93.6421 1.67431 93.6142 1.70267 93.5947 1.73668C93.5752 1.77069 93.5646 1.8092 93.5641 1.8485C93.5641 2.04268 93.7814 2.22327 93.9948 2.29803C94.0626 2.32963 94.1364 2.346 94.2111 2.346C94.2858 2.346 94.3596 2.32963 94.4274 2.29803C94.4609 2.27806 94.4887 2.24968 94.5081 2.21565C94.5274 2.18162 94.5378 2.1431 94.538 2.10385C94.538 1.91647 94.3217 1.74074 94.1131 1.65821" fill="#C1D72E"></path>
  <path d="M88.6647 0.502852C88.7106 0.519189 88.7598 0.523838 88.8079 0.516387C88.8561 0.508935 88.9016 0.489614 88.9406 0.460133L89.0031 0.401879L88.9935 0.269839C88.9675 0.206412 88.9268 0.150252 88.8747 0.106134C88.8227 0.0620164 88.7608 0.0312453 88.6945 0.0164371C88.6483 5.85675e-05 88.5987 -0.00416868 88.5504 0.00415446C88.5021 0.0124776 88.4568 0.0330768 88.4185 0.0640104L88.3541 0.124205L88.3657 0.251392C88.3905 0.314961 88.4309 0.371162 88.483 0.414782C88.5351 0.458402 88.5972 0.488027 88.6637 0.50091" fill="#C1D72E"></path>
  <path d="M86.4888 21.1352C86.3005 21.0351 86.0817 21.0108 85.8764 21.0672L85.6966 21.242C85.6168 21.4867 85.8889 21.7614 86.1869 21.8974C86.3739 21.9981 86.5917 22.0234 86.7964 21.9682L87.0041 21.7672L86.9791 21.7886C87.0589 21.5459 86.7955 21.275 86.4898 21.1362" fill="#C1D72E"></path>
  <path d="M85.2893 23.1847C85.2198 23.153 85.1441 23.1373 85.0678 23.1387C84.9915 23.14 84.9165 23.1584 84.8481 23.1925C84.815 23.2128 84.7875 23.2413 84.7681 23.2753C84.7488 23.3092 84.7383 23.3475 84.7375 23.3866C84.7375 23.5808 84.9528 23.7536 85.1749 23.8303C85.2418 23.8635 85.3153 23.8807 85.3898 23.8807C85.4643 23.8807 85.5378 23.8635 85.6047 23.8303C85.6377 23.8101 85.6651 23.7816 85.6841 23.7476C85.7031 23.7136 85.7132 23.6752 85.7133 23.6362C85.7133 23.4488 85.4999 23.2692 85.2893 23.1905" fill="#C1D72E"></path>
  <path d="M85.3476 25.6256C85.3024 25.6094 85.254 25.6048 85.2067 25.6123C85.1593 25.6198 85.1146 25.639 85.0765 25.6683L85.014 25.7295L85.0197 25.8596C85.0462 25.9231 85.0876 25.9792 85.1404 26.0228C85.1931 26.0665 85.2557 26.0964 85.3226 26.1101C85.3679 26.1269 85.4167 26.1315 85.4643 26.1233C85.5119 26.1151 85.5565 26.0945 85.5937 26.0635L85.661 26.0062L85.6447 25.8771C85.6206 25.8128 85.5806 25.7558 85.5284 25.7118C85.4761 25.6677 85.4135 25.638 85.3466 25.6256" fill="#C1D72E"></path>
  <path d="M118.868 27.1886C118.673 27.1363 118.469 27.1357 118.274 27.1867C118.079 27.2378 117.901 27.3387 117.756 27.4799C117.68 27.581 117.639 27.7044 117.639 27.8314C117.645 27.9969 117.692 28.1582 117.776 28.3003C118.042 28.6789 118.382 28.9981 118.775 29.2379C119.168 29.4776 119.606 29.6328 120.062 29.6935C120.256 29.747 120.461 29.7483 120.655 29.6972C120.85 29.6461 121.028 29.5444 121.172 29.4023C121.252 29.279 121.292 29.134 121.287 28.987C121.283 28.8399 121.233 28.6979 121.146 28.5799C120.881 28.202 120.542 27.8831 120.15 27.643C119.758 27.4028 119.321 27.2465 118.867 27.1838" fill="#C1D72E"></path>
  <path d="M117.993 26.2459C118.14 26.2605 118.288 26.2343 118.421 26.1702C118.555 26.106 118.668 26.0063 118.749 25.8818C118.789 25.8053 118.809 25.7204 118.808 25.6343C118.79 25.3874 118.689 25.1544 118.52 24.975C118.24 24.6602 117.902 24.405 117.523 24.2246C117.145 24.0442 116.734 23.9421 116.316 23.9245C116.168 23.9081 116.019 23.9333 115.884 23.9974C115.75 24.0614 115.635 24.1619 115.554 24.2876C115.498 24.4449 115.489 24.6154 115.53 24.7775C115.57 24.9395 115.657 25.0857 115.781 25.1974C116.061 25.5125 116.401 25.7677 116.781 25.9476C117.161 26.1276 117.573 26.2287 117.992 26.2449" fill="#C1D72E"></path>
  <path d="M114.969 22.7653C115.075 22.7498 115.175 22.7055 115.258 22.6371C115.342 22.5687 115.405 22.4788 115.441 22.3769C115.521 22.0973 115.362 21.7546 115.011 21.4323C114.741 21.1761 114.421 20.9803 114.071 20.858C113.722 20.7357 113.35 20.6895 112.982 20.7225C112.875 20.7362 112.774 20.7798 112.69 20.8485C112.607 20.9171 112.544 21.008 112.509 21.1109C112.425 21.3857 112.582 21.7284 112.935 22.0565C113.205 22.313 113.526 22.509 113.877 22.6318C114.227 22.7546 114.6 22.8014 114.969 22.7692" fill="#C1D72E"></path>
  <path d="M109 17.7166C108.93 17.7534 108.87 17.8078 108.826 17.8745C108.782 17.9413 108.756 18.0183 108.75 18.0982C108.769 18.288 108.834 18.4703 108.938 18.6295C109.042 18.7887 109.183 18.9202 109.348 19.0128C109.593 19.2188 109.883 19.3618 110.195 19.4295C110.506 19.4971 110.829 19.4874 111.136 19.4011C111.208 19.3665 111.269 19.3132 111.314 19.2467C111.358 19.1801 111.384 19.1027 111.39 19.0225C111.369 18.8328 111.304 18.6508 111.198 18.4922C111.093 18.3337 110.952 18.2031 110.786 18.1118C110.541 17.9066 110.251 17.7642 109.94 17.6965C109.629 17.6289 109.307 17.6382 109 17.7234" fill="#C1D72E"></path>
  <path d="M106.031 15.1409C105.434 14.7943 104.794 14.7526 104.547 15.0439L104.463 15.4031C104.523 15.5792 104.618 15.7412 104.742 15.8795C104.865 16.0178 105.015 16.1295 105.183 16.208C105.781 16.5546 106.422 16.5963 106.668 16.3109L106.691 16.2827L106.669 16.3041L106.752 15.9516C106.692 15.7746 106.597 15.6116 106.473 15.4726C106.349 15.3336 106.199 15.2214 106.031 15.1429" fill="#C1D72E"></path>
  <path d="M100.976 12.6594C100.689 12.5032 100.352 12.4683 100.039 12.5623C99.9852 12.5842 99.9371 12.6181 99.8981 12.6615C99.8591 12.7049 99.8304 12.7566 99.814 12.8128C99.7275 13.1196 100.065 13.5351 100.603 13.7768C100.891 13.9296 101.226 13.9644 101.538 13.8739C101.592 13.8519 101.64 13.8182 101.68 13.7752C101.719 13.7323 101.749 13.6812 101.767 13.6254C101.847 13.3147 101.506 12.9021 100.976 12.6661" fill="#C1D72E"></path>
  <path d="M95.8119 11.8253C95.9225 11.8742 96.0428 11.8968 96.1635 11.8914C96.2842 11.886 96.402 11.8528 96.5079 11.7942C96.5554 11.7613 96.5926 11.7155 96.615 11.662C96.6375 11.6085 96.6444 11.5496 96.6349 11.4923C96.6041 11.2165 96.2503 10.901 95.8234 10.7602C95.7132 10.7099 95.5928 10.6863 95.472 10.6913C95.3511 10.6964 95.2331 10.73 95.1273 10.7894C95.0801 10.8223 95.0431 10.868 95.0205 10.9212C94.9979 10.9745 94.9906 11.0331 94.9995 11.0903C95.0322 11.403 95.4417 11.7059 95.8119 11.8253Z" fill="#C1D72E"></path>
  <path d="M91.0152 10.4506C91.0968 10.4778 91.184 10.4832 91.2683 10.4662C91.3525 10.4491 91.431 10.4103 91.4959 10.3535C91.5341 10.3103 91.5589 10.2567 91.5673 10.1994C91.5757 10.1421 91.5672 10.0836 91.543 10.0311C91.4647 9.89848 91.3588 9.78456 91.2327 9.69723C91.1065 9.60991 90.9631 9.55125 90.8123 9.5253C90.7308 9.49746 90.6435 9.49178 90.5591 9.50882C90.4747 9.52586 90.3963 9.56503 90.3316 9.62239C90.2936 9.66597 90.2693 9.72004 90.262 9.77765C90.2546 9.83527 90.2645 9.89379 90.2903 9.9457C90.3687 10.0784 90.4743 10.1926 90.5999 10.2806C90.7256 10.3687 90.8685 10.4286 91.019 10.4564" fill="#C1D72E"></path>
  <path d="M86.4401 9.71371C86.4974 9.72417 86.5565 9.71784 86.6103 9.69548C86.6642 9.67311 86.7105 9.63564 86.7439 9.58749C86.7659 9.55269 86.7776 9.51227 86.7776 9.47099C86.7751 9.40461 86.7518 9.34073 86.7113 9.28846C86.6428 9.19996 86.557 9.12669 86.4593 9.07323C86.3615 9.01977 86.2538 8.98727 86.1431 8.97778C86.085 8.96882 86.0256 8.97613 85.9714 8.99889C85.9171 9.02166 85.8701 9.05902 85.8354 9.1069C85.8097 9.15467 85.7995 9.20934 85.806 9.26329C85.8125 9.31724 85.8356 9.36779 85.8719 9.40788C85.9395 9.49695 86.0252 9.57041 86.1232 9.62332C86.2212 9.67623 86.3293 9.70738 86.4401 9.71468" fill="#C1D72E"></path>
  <path d="M82.3934 9.30008C82.3446 9.2508 82.2861 9.21244 82.2216 9.18752C82.1572 9.16259 82.0883 9.15165 82.0194 9.15542L81.9299 9.16998L81.8396 9.28454C81.8262 9.32623 81.8253 9.37099 81.8371 9.41316C81.8489 9.45534 81.8729 9.49302 81.9059 9.52144C81.9539 9.5703 82.0117 9.60829 82.0753 9.6329C82.139 9.6575 82.2071 9.66816 82.2751 9.66416L82.3712 9.65542L82.4607 9.53989C82.4751 9.49802 82.4768 9.45277 82.4657 9.40989C82.4546 9.36701 82.4311 9.32845 82.3982 9.29911" fill="#C1D72E"></path>
  <path d="M110.572 27.8469C110.452 28.1489 110.593 28.5372 110.961 28.9198C111.284 29.2506 111.671 29.5116 112.097 29.6869C112.523 29.8621 112.98 29.948 113.44 29.9392C113.584 29.9407 113.725 29.9013 113.847 29.8255C113.969 29.7498 114.067 29.6408 114.131 29.511C114.161 29.44 114.177 29.3632 114.176 29.2858C114.145 28.9601 113.994 28.6582 113.752 28.4401C113.428 28.1077 113.041 27.845 112.613 27.668C112.186 27.4909 111.728 27.4032 111.266 27.41C111.121 27.4106 110.98 27.4517 110.857 27.5289C110.735 27.6061 110.636 27.7162 110.572 27.8469Z" fill="#C1D72E"></path>
  <path d="M108.037 26.2372C108.344 26.4978 108.707 26.6809 109.098 26.7714C109.489 26.8619 109.895 26.8572 110.283 26.7576C110.371 26.7174 110.448 26.6549 110.505 26.5762C110.562 26.4974 110.598 26.4051 110.609 26.3081C110.585 26.0738 110.506 25.8487 110.378 25.6518C110.249 25.4549 110.076 25.2921 109.873 25.177C109.567 24.9148 109.204 24.7299 108.813 24.6379C108.423 24.5459 108.016 24.5493 107.627 24.6479C107.538 24.6874 107.461 24.7499 107.403 24.8292C107.346 24.9085 107.31 25.0017 107.3 25.0994C107.322 25.3353 107.401 25.5623 107.529 25.7606C107.658 25.9588 107.832 26.1225 108.037 26.2372Z" fill="#C1D72E"></path>
  <path d="M104.37 23.8314C105.155 24.2488 105.972 24.2605 106.228 23.8605C106.269 23.7947 106.295 23.7207 106.304 23.6437C106.314 23.5667 106.306 23.4886 106.282 23.4148C106.081 22.9553 105.718 22.5878 105.263 22.3838C104.473 21.9624 103.653 21.9488 103.399 22.3527C103.36 22.4195 103.336 22.4936 103.328 22.5704C103.32 22.6471 103.327 22.7248 103.351 22.7983C103.551 23.2589 103.914 23.6271 104.37 23.8304" fill="#C1D72E"></path>
  <path d="M98.977 20.6945C98.977 21.1275 99.5539 21.6653 100.264 21.9168C100.444 22.0008 100.639 22.0448 100.836 22.0458C101.034 22.0468 101.229 22.0048 101.409 21.9226C101.474 21.8815 101.528 21.8242 101.565 21.7562C101.602 21.6882 101.621 21.6118 101.62 21.5343V21.5226C101.61 21.0906 101.043 20.5517 100.336 20.3032C100.155 20.2179 99.958 20.1738 99.7587 20.1738C99.5593 20.1738 99.3624 20.2179 99.1818 20.3032C99.1142 20.3441 99.059 20.4029 99.0222 20.4732C98.9854 20.5436 98.9685 20.6228 98.9732 20.7022" fill="#C1D72E"></path>
  <path d="M96.8934 19.9963C96.7406 19.756 96.5393 19.551 96.3028 19.3946C96.0662 19.2382 95.7996 19.1339 95.5205 19.0885C95.3872 19.0466 95.2455 19.0397 95.1089 19.0686C94.9723 19.0975 94.8452 19.1612 94.7398 19.2536C94.6809 19.3246 94.6457 19.4125 94.6392 19.5049C94.6326 19.5973 94.655 19.6894 94.7032 19.7681C94.8553 20.0104 95.0566 20.2173 95.2937 20.3752C95.5309 20.533 95.7986 20.6382 96.0791 20.6837C96.2121 20.7244 96.3532 20.7304 96.4892 20.7012C96.6252 20.672 96.7517 20.6085 96.8568 20.5167C96.9132 20.4433 96.9467 20.3547 96.9532 20.2621C96.9597 20.1695 96.9389 20.077 96.8934 19.9963Z" fill="#C1D72E"></path>
  <path d="M92.5123 19.4294C92.3482 19.2483 92.1498 19.1024 91.9288 19.0001C91.7079 18.8979 91.4689 18.8415 91.2259 18.8342C91.1325 18.8259 91.0387 18.8444 90.9552 18.8875C90.8717 18.9306 90.8019 18.9966 90.7539 19.0779C90.7196 19.1782 90.7156 19.2866 90.7423 19.3892C90.769 19.4919 90.8252 19.5842 90.9038 19.6546C91.0679 19.837 91.2668 19.9842 91.4885 20.0873C91.7101 20.1904 91.9501 20.2473 92.1941 20.2546C92.2862 20.2621 92.3787 20.2435 92.461 20.201C92.5434 20.1584 92.6124 20.0937 92.6604 20.0138C92.695 19.9129 92.6996 19.804 92.6737 19.7005C92.6477 19.5969 92.5923 19.5034 92.5142 19.4313" fill="#C1D72E"></path>
  <path d="M13.7064 30.1674H17.006V49.6823H13.7064V30.1674Z" fill="#1A9AD0"></path>
  <path d="M39.385 37.6685V49.6842H36.0373V30.1091L49.401 42.3918V30.1674H52.6035V49.6822L39.385 37.6685Z" fill="#1A9AD0"></path>
  <path d="M54.708 30.1674H58.0057V49.6823H54.708V30.1674Z" fill="#1A9AD0"></path>
  <path d="M69.4409 41.9365H62.9907V49.6832H59.6912V36.7704C59.6912 35.0169 60.381 33.3352 61.6088 32.0952C62.8367 30.8553 64.502 30.1587 66.2384 30.1587C67.9749 30.1587 69.6402 30.8553 70.8681 32.0952C72.0959 33.3352 72.7857 35.0169 72.7857 36.7704V49.6832H69.44L69.4409 41.9365ZM62.9907 39.0744H69.4409V36.7568C69.4479 36.3263 69.3683 35.8987 69.207 35.5C69.0458 35.1014 68.8061 34.7399 68.5026 34.4374C68.2097 34.127 67.8562 33.8813 67.4645 33.7158C67.0728 33.5504 66.6514 33.4688 66.2269 33.4762C65.3669 33.478 64.5428 33.8246 63.9358 34.4398C63.3288 35.055 62.9885 35.8884 62.9898 36.7568L62.9907 39.0744Z" fill="#1A9AD0"></path>
  <path d="M90.9885 30.1683H87.7879V42.3918L74.4241 30.1101V49.6841H77.7728V37.6684L90.9885 49.6841V33.0344H96.2272V49.6841H99.5749V33.0344H104.51V30.1683H90.9885Z" fill="#1A9AD0"></path>
  <path d="M103.662 46.5288C103.985 46.5288 104.301 46.6256 104.57 46.8069C104.839 46.9883 105.048 47.2461 105.172 47.5477C105.296 47.8493 105.328 48.1811 105.265 48.5013C105.202 48.8215 105.046 49.1155 104.818 49.3464C104.589 49.5772 104.298 49.7344 103.981 49.7981C103.664 49.8618 103.335 49.8291 103.036 49.7042C102.738 49.5792 102.483 49.3677 102.303 49.0963C102.123 48.8248 102.027 48.5057 102.027 48.1793C102.027 47.7415 102.2 47.3217 102.506 47.0122C102.813 46.7027 103.228 46.5288 103.662 46.5288ZM103.662 49.5298C103.927 49.5288 104.186 49.4486 104.406 49.2991C104.626 49.1497 104.797 48.9377 104.898 48.6901C104.998 48.4425 105.024 48.1703 104.972 47.9079C104.919 47.6454 104.791 47.4046 104.603 47.2157C104.416 47.0268 104.176 46.8983 103.916 46.8466C103.656 46.7948 103.387 46.8221 103.142 46.9249C102.897 47.0277 102.688 47.2014 102.541 47.4242C102.394 47.6469 102.316 47.9087 102.316 48.1764C102.316 48.3546 102.351 48.5311 102.418 48.6957C102.486 48.8602 102.585 49.0097 102.71 49.1355C102.836 49.2612 102.984 49.3608 103.147 49.4284C103.311 49.4961 103.485 49.5306 103.662 49.5298ZM103.034 47.2249H103.754C104.201 47.2249 104.413 47.4288 104.413 47.7909C104.418 47.855 104.411 47.9195 104.391 47.9807C104.372 48.0418 104.34 48.0983 104.298 48.1466C104.256 48.195 104.205 48.2343 104.147 48.2621C104.09 48.2899 104.027 48.3056 103.964 48.3084L104.452 49.1075H104.093L103.627 48.3307H103.377V49.1075H103.034V47.2249ZM103.377 48.0443H103.627C103.837 48.0443 104.07 48.0307 104.07 47.7783C104.07 47.5259 103.838 47.5133 103.627 47.5171H103.377V48.0443Z" fill="#1A9AD0"></path>
  <path d="M31.1033 46.1521C30.1101 46.5856 29.0257 46.763 27.9478 46.6681C26.8698 46.5733 25.8322 46.2092 24.9282 45.6087C24.0242 45.0082 23.2823 44.1901 22.7692 43.2281C22.2561 42.2661 21.988 41.1903 21.989 40.0976C21.9818 39.2623 22.1285 38.433 22.4217 37.6519C22.7556 36.804 23.2616 36.0361 23.9071 35.3975C24.6567 34.6439 25.576 34.0847 26.5862 33.7679C27.5965 33.451 28.6677 33.3859 29.7083 33.5781C30.3189 33.7159 30.9127 33.9206 31.4792 34.1888C31.5821 34.2422 31.6849 34.2975 31.7878 34.3577V34.3393C32.1368 34.515 32.5156 34.7276 32.9117 34.982V31.2081C31.5681 30.5201 30.0822 30.1635 28.5757 30.1674H28.5411C28.3488 30.1674 28.1652 30.1722 27.9796 30.181C25.4694 30.308 23.1041 31.4068 21.3751 33.249C19.6461 35.0912 18.6864 37.5352 18.6952 40.0733V40.0966C18.6913 41.4016 18.9437 42.6945 19.4377 43.9004C19.9317 45.1063 20.6575 46.2014 21.5732 47.1223C22.4888 48.0431 23.5762 48.7716 24.7724 49.2655C25.9685 49.7594 27.2498 50.0089 28.5421 49.9997C30.6595 50.0163 32.7225 49.322 34.4067 48.0259V40.3559H31.1033V46.1521Z" fill="#1A9AD0"></path>
  <path d="M10.9838 40.5452C10.1739 39.548 9.06239 38.8467 7.81976 38.5491C6.98909 38.284 6.41127 38.1054 6.0892 38.0064C4.45991 37.5138 3.64559 36.7093 3.64623 35.5927C3.63317 35.2131 3.72433 34.8373 3.90961 34.5068C4.0949 34.1763 4.36709 33.9039 4.6961 33.7199C5.14486 33.4429 5.66132 33.298 6.18726 33.3014C7.56748 33.3041 8.92056 33.6889 10.0993 34.4141V31.1451C8.78061 30.4515 7.30573 30.1169 5.82 30.1742C4.81116 30.1983 3.82248 30.4645 2.93574 30.9509C2.06555 31.4266 1.33271 32.1225 0.809073 32.9704C0.282538 33.797 0.00283978 34.7593 0.00340232 35.7422V35.8908C-0.032494 36.8984 0.216266 37.8955 0.720623 38.7656C1.30134 39.6288 2.08661 40.3317 3.00496 40.8103C3.75391 41.0899 4.37306 41.2957 4.86146 41.4278C5.6486 41.6266 6.41078 41.9152 7.1333 42.288C7.49916 42.4535 7.81199 42.7188 8.03655 43.0542C8.26111 43.3895 8.38847 43.7815 8.4043 44.1861V44.2356C8.4043 45.91 7.23938 46.7476 4.90953 46.7482C4.90953 46.7482 3.05015 46.9288 0.458155 44.6336V48.5531L1.53783 49.0657C2.81313 49.6808 4.21067 49.9936 5.62387 49.9803C8.34405 49.88 10.2496 48.9276 11.3405 47.123C11.8444 46.2418 12.0823 45.2311 12.025 44.2152C12.0521 42.9138 11.6892 41.6346 10.9838 40.5452Z" fill="#1A9AD0"></path>
</svg>
